<svg width="583" height="301" viewBox="0 0 583 301" fill="none" xmlns="http://www.w3.org/2000/svg">
<path d="M13.2101 291.2H554.86C590.12 223.38 594.35 132.29 551.51 72.2C467.19 -46.08 253.03 14.88 220.51 24.2C137.9 47.86 94.6001 88.36 83.5101 99.2C74.9501 107.57 -22.1399 204.65 8.51008 281.7C9.57008 284.37 11.0201 287.58 13.2101 291.2Z" fill="#EFEDF9"/>
<path d="M438.01 77.2H354.01C352.09 77.2 350.51 75.63 350.51 73.7V47.7C350.51 45.77 352.09 44.2 354.01 44.2H438.01C439.94 44.2 441.51 45.77 441.51 47.7V73.7C441.51 75.63 439.93 77.2 438.01 77.2Z" fill="#E6E6F0"/>
<path d="M490.01 113.2H406.01C404.09 113.2 402.51 111.62 402.51 109.7V83.7C402.51 81.77 404.09 80.2 406.01 80.2H490.01C491.93 80.2 493.51 81.77 493.51 83.7V109.7C493.51 111.63 491.93 113.2 490.01 113.2Z" fill="#E6E6F0"/>
<path d="M316.01 215.2H232.01C230.09 215.2 228.51 213.62 228.51 211.7V185.7C228.51 183.77 230.09 182.2 232.01 182.2H316.01C317.94 182.2 319.51 183.77 319.51 185.7V211.7C319.51 213.63 317.93 215.2 316.01 215.2Z" fill="#E6E6F0"/>
<path d="M380.01 179.2H296.01C294.09 179.2 292.51 177.62 292.51 175.7V149.7C292.51 147.77 294.09 146.2 296.01 146.2H380.01C381.94 146.2 383.51 147.77 383.51 149.7V175.7C383.51 177.63 381.93 179.2 380.01 179.2Z" fill="#E6E6F0"/>
<path d="M553.01 248.2H469.01C467.09 248.2 465.51 246.62 465.51 244.7V218.7C465.51 216.77 467.09 215.2 469.01 215.2H553.01C554.93 215.2 556.51 216.77 556.51 218.7V244.7C556.51 246.63 554.93 248.2 553.01 248.2Z" fill="#E6E6F0"/>
<path d="M225.01 109.2H141.01C139.08 109.2 137.51 107.63 137.51 105.7V79.7C137.51 77.77 139.08 76.2 141.01 76.2H225.01C226.94 76.2 228.51 77.77 228.51 79.7V105.7C228.51 107.63 226.93 109.2 225.01 109.2Z" fill="#E6E6F0"/>
<path d="M368.01 251.2H284.01C282.09 251.2 280.51 249.62 280.51 247.7V221.7C280.51 219.77 282.09 218.2 284.01 218.2H368.01C369.94 218.2 371.51 219.77 371.51 221.7V247.7C371.51 249.63 369.93 251.2 368.01 251.2Z" fill="#E6E6F0"/>
<path d="M334.621 158.182C344.486 153.862 348.173 140.518 342.856 128.376C337.54 116.235 325.233 109.894 315.368 114.214C305.503 118.533 301.816 131.878 307.132 144.019C312.449 156.161 324.756 162.501 334.621 158.182Z" fill="#5FCE84"/>
<path d="M395.06 160.121C400.68 150.388 399.698 139.301 392.869 135.358C386.039 131.415 375.947 136.108 370.327 145.841C364.708 155.574 365.689 166.661 372.519 170.604C379.348 174.548 389.441 169.854 395.06 160.121Z" fill="#5FCE84"/>
<path d="M394.802 155.581C398.389 149.368 397.761 142.29 393.399 139.772C389.037 137.253 382.593 140.248 379.006 146.461C375.419 152.674 376.047 159.752 380.409 162.27C384.771 164.789 391.214 161.794 394.802 155.581Z" fill="#67E58E"/>
<path d="M347.51 218.2C365.183 218.2 379.51 200.515 379.51 178.7C379.51 156.885 365.183 139.2 347.51 139.2C329.837 139.2 315.51 156.885 315.51 178.7C315.51 200.515 329.837 218.2 347.51 218.2Z" fill="#5FCE84"/>
<path d="M353.85 196.2C365.26 196.2 374.51 184.783 374.51 170.7C374.51 156.617 365.26 145.2 353.85 145.2C342.44 145.2 333.19 156.617 333.19 170.7C333.19 184.783 342.44 196.2 353.85 196.2Z" fill="#67E58E"/>
<path d="M334.242 149.978C341.405 146.841 344.084 137.154 340.225 128.342C336.366 119.529 327.431 114.928 320.267 118.064C313.104 121.201 310.425 130.888 314.284 139.701C318.143 148.513 327.078 153.115 334.242 149.978Z" fill="#67E58E"/>
<path d="M361.49 281.2H333.52C321.96 281.2 312.51 271.74 312.51 260.19V207.22C312.51 202.24 316.55 198.21 321.52 198.21H373.49C378.47 198.21 382.5 202.25 382.5 207.22V260.19C382.51 271.75 373.05 281.2 361.49 281.2Z" fill="#A36B5A"/>
<path d="M365.01 281.2C355.38 281.2 347.51 273.32 347.51 263.7V207.21C347.51 202.23 351.55 198.2 356.52 198.2H373.49C378.47 198.2 382.5 202.24 382.5 207.21V263.7C382.51 273.33 374.63 281.2 365.01 281.2Z" fill="#BA6F5D"/>
<path d="M339.01 215.2H314.01C309.34 215.2 305.51 211.37 305.51 206.7C305.51 202.02 309.34 198.2 314.01 198.2H339.01C343.69 198.2 347.51 202.02 347.51 206.7C347.51 211.38 343.68 215.2 339.01 215.2Z" fill="#A36B5A"/>
<path d="M360.01 215.2H335.01C330.34 215.2 326.51 211.37 326.51 206.7C326.51 202.02 330.34 198.2 335.01 198.2H360.01C364.69 198.2 368.51 202.02 368.51 206.7C368.51 211.38 364.68 215.2 360.01 215.2Z" fill="#BA6F5D"/>
<path d="M381.01 215.2H356.01C351.34 215.2 347.51 211.37 347.51 206.7C347.51 202.02 351.34 198.2 356.01 198.2H381.01C385.69 198.2 389.51 202.02 389.51 206.7C389.51 211.38 385.68 215.2 381.01 215.2Z" fill="#C67767"/>
<path d="M264.63 281.69H37.7402C30.3802 281.69 24.2602 276.04 23.6802 268.7L11.3802 114.43C10.7302 106.22 17.2102 99.2 25.4402 99.2H252.33C259.69 99.2 265.81 104.85 266.39 112.19L278.68 266.46C279.34 274.67 272.86 281.69 264.63 281.69Z" fill="#CEE6EA"/>
<path d="M272.79 281.69H45.9001C38.5401 281.69 32.4201 276.04 31.8401 268.7L19.5501 114.43C18.9001 106.22 25.3801 99.2 33.6101 99.2H260.5C267.86 99.2 273.98 104.85 274.56 112.19L286.85 266.46C287.51 274.67 281.02 281.69 272.79 281.69Z" fill="white"/>
<path d="M259.63 271.65H57.7102C51.1602 271.65 45.7202 266.62 45.2002 260.09L34.2602 122.79C33.6802 115.49 39.4502 109.24 46.7702 109.24H248.69C255.24 109.24 260.68 114.27 261.2 120.8L272.14 258.1C272.73 265.4 266.96 271.65 259.63 271.65Z" fill="#26BCBC"/>
<path d="M249.73 256.67H67.7201C61.8201 256.67 56.9101 252.57 56.4401 247.24L46.5801 135.27C46.0601 129.31 51.2601 124.22 57.8601 124.22H239.88C245.78 124.22 250.69 128.32 251.16 133.65L261.02 245.62C261.54 251.57 256.34 256.67 249.73 256.67Z" fill="#4ED8D1"/>
<path d="M35.9 281.84H348.53C353.73 281.84 357.98 277.59 357.98 272.39C357.98 267.19 353.73 262.94 348.53 262.94H35.9C30.7 262.94 26.45 267.19 26.45 272.39C26.45 277.59 30.7 281.84 35.9 281.84Z" fill="#CEE6EA"/>
<path d="M162.75 281.69H362.6C367.76 281.69 371.98 277.47 371.98 272.31C371.98 267.15 367.76 262.93 362.6 262.93H162.75C157.59 262.93 153.37 267.15 153.37 272.31C153.38 277.47 157.59 281.69 162.75 281.69Z" fill="white"/>
<path d="M9.95007 300.44H209.8C214.96 300.44 219.18 296.22 219.18 291.06C219.18 285.9 214.96 281.68 209.8 281.68H9.95007C4.79007 281.68 0.570068 285.9 0.570068 291.06C0.580068 296.22 4.80007 300.44 9.95007 300.44Z" fill="#91653A"/>
<path d="M154.29 300.2H354.38C359.47 300.2 363.64 296.03 363.64 290.94C363.64 285.85 359.47 281.68 354.38 281.68H154.29C149.2 281.68 145.03 285.85 145.03 290.94C145.04 296.04 149.2 300.2 154.29 300.2Z" fill="#A57346"/>
<path d="M206.28 300.2H421.25C426.34 300.2 430.51 296.03 430.51 290.94C430.51 285.85 426.34 281.68 421.25 281.68H206.28C201.19 281.68 197.02 285.85 197.02 290.94C197.02 296.04 201.19 300.2 206.28 300.2Z" fill="#AD794E"/>
<path d="M369.21 300.2H560.81C565.6 300.2 569.51 296.28 569.51 291.5V290.39C569.51 285.6 565.59 281.69 560.81 281.69H369.21C364.42 281.69 360.51 285.61 360.51 290.39V291.5C360.51 296.29 364.42 300.2 369.21 300.2Z" fill="#B78058"/>
<path d="M63.47 276.32H51.22C48.65 276.32 46.55 274.22 46.55 271.65C46.55 269.08 48.65 266.98 51.22 266.98H63.47C66.04 266.98 68.14 269.08 68.14 271.65C68.14 274.22 66.04 276.32 63.47 276.32Z" fill="#ACDDE2"/>
<path d="M38.88 276.32C36.31 276.32 34.21 274.22 34.21 271.65C34.21 269.08 36.31 266.98 38.88 266.98C41.45 266.98 43.55 269.08 43.55 271.65C43.54 274.22 41.45 276.32 38.88 276.32Z" fill="#ACDDE2"/>
<path d="M76.88 275.06C75 275.06 73.47 273.53 73.47 271.65C73.47 269.77 75 268.24 76.88 268.24C78.76 268.24 80.29 269.77 80.29 271.65C80.29 273.53 78.76 275.06 76.88 275.06Z" fill="#ACDDE2"/>
<path d="M88.5501 275.06C86.6701 275.06 85.1401 273.53 85.1401 271.65C85.1401 269.77 86.6701 268.24 88.5501 268.24C90.4301 268.24 91.9601 269.77 91.9601 271.65C91.9601 273.53 90.4201 275.06 88.5501 275.06Z" fill="#ACDDE2"/>
<path d="M556.54 262.94H464.33C459.15 262.94 454.91 258.7 454.91 253.52V253.5C454.91 248.32 459.15 244.08 464.33 244.08H556.54C561.72 244.08 565.96 248.32 565.96 253.5V253.52C565.97 258.7 561.73 262.94 556.54 262.94Z" fill="#FFC408"/>
<path d="M465.5 262.94H397.71V244.08H465.5C470.64 244.08 474.84 248.28 474.84 253.42V253.61C474.84 258.74 470.64 262.94 465.5 262.94Z" fill="#F99F10"/>
<path d="M551.43 257.86H498.58C495.79 257.86 493.5 255.58 493.5 252.78C493.5 249.99 495.78 247.7 498.58 247.7H551.43C554.22 247.7 556.51 249.98 556.51 252.78C556.51 255.58 554.22 257.86 551.43 257.86Z" fill="#FCCF4F"/>
<path d="M464.58 260.8H397.72V245.61H464.58C468.76 245.61 472.18 249.03 472.18 253.21C472.18 257.38 468.76 260.8 464.58 260.8Z" fill="#F0F2F1"/>
<path d="M458.12 260.8H397.71V245.61H458.12C462.18 245.61 465.51 248.93 465.51 253V253.42C465.51 257.47 462.18 260.8 458.12 260.8Z" fill="white"/>
<path d="M543.08 244.13H464.34C459.15 244.13 454.91 239.89 454.91 234.7C454.91 229.51 459.15 225.27 464.34 225.27H543.08C548.27 225.27 552.51 229.51 552.51 234.7C552.51 239.89 548.26 244.13 543.08 244.13Z" fill="#599FFF"/>
<path d="M465.5 244.13H397.71V225.27H465.5C470.64 225.27 474.84 229.47 474.84 234.61V234.8C474.84 239.93 470.64 244.13 465.5 244.13Z" fill="#5190EF"/>
<path d="M539.63 239.47H491.14C488.46 239.47 486.26 237.27 486.26 234.59V234.2C486.26 231.52 488.46 229.32 491.14 229.32H539.63C542.31 229.32 544.51 231.52 544.51 234.2V234.59C544.51 237.28 542.31 239.47 539.63 239.47Z" fill="#85BAF9"/>
<path d="M464.58 241.99H397.72V226.8H464.58C468.76 226.8 472.18 230.22 472.18 234.4C472.18 238.57 468.76 241.99 464.58 241.99Z" fill="#F0F2F1"/>
<path d="M458.12 241.99H397.71V226.8H458.12C462.18 226.8 465.51 230.12 465.51 234.19V234.61C465.51 238.67 462.18 241.99 458.12 241.99Z" fill="white"/>
<path d="M556.54 281.82H464.33C459.15 281.82 454.91 277.58 454.91 272.4V272.38C454.91 267.2 459.15 262.96 464.33 262.96H556.54C561.72 262.96 565.96 267.2 565.96 272.38V272.4C565.97 277.58 561.73 281.82 556.54 281.82Z" fill="#FE5751"/>
<path d="M465.5 281.82H397.71V262.96H465.5C470.64 262.96 474.84 267.16 474.84 272.3V272.49C474.84 277.62 470.64 281.82 465.5 281.82Z" fill="#F24141"/>
<path d="M551.43 276.75H498.58C495.79 276.75 493.5 274.47 493.5 271.67C493.5 268.88 495.78 266.59 498.58 266.59H551.43C554.22 266.59 556.51 268.87 556.51 271.67C556.51 274.46 554.22 276.75 551.43 276.75Z" fill="#F76363"/>
<path d="M464.58 279.91H397.72V264.72H464.58C468.76 264.72 472.18 268.14 472.18 272.32C472.18 276.49 468.76 279.91 464.58 279.91Z" fill="#F0F2F1"/>
<path d="M458.12 279.91H397.71V264.72H458.12C462.18 264.72 465.51 268.04 465.51 272.11V272.53C465.51 276.59 462.18 279.91 458.12 279.91Z" fill="white"/>
<path d="M458.84 253.55L454.84 250.06L450.84 253.55V229.05H458.84V253.55Z" fill="#FE5751"/>
<path d="M460.34 226.8H452.34L450.84 229.05H458.84L460.34 226.8Z" fill="#F24141"/>
<path d="M475.02 225.27H452.75C446.54 225.27 441.51 220.24 441.51 214.03V170.7H486.26V214.03C486.26 220.24 481.23 225.27 475.02 225.27Z" fill="#F24141"/>
<path d="M475.07 225.27C468.89 225.27 463.88 220.26 463.88 214.08V170.7H486.26V214.08C486.26 220.26 481.25 225.27 475.07 225.27Z" fill="#FC6363"/>
<path d="M488.18 182.2C480.82 182.2 474.85 188.17 474.85 195.53C474.85 202.89 480.82 208.86 488.18 208.86C495.54 208.86 501.51 202.89 501.51 195.53C501.51 188.17 495.54 182.2 488.18 182.2ZM488.18 203.87C483.58 203.87 479.85 200.14 479.85 195.54C479.85 190.94 483.58 187.21 488.18 187.21C492.78 187.21 496.51 190.94 496.51 195.54C496.51 200.14 492.78 203.87 488.18 203.87Z" fill="#FC6363"/>
<path d="M464.12 171.7H441.29C439.91 171.7 438.79 170.57 438.79 169.2C438.79 167.82 439.92 166.7 441.29 166.7H464.12C465.5 166.7 466.62 167.83 466.62 169.2C466.62 170.58 465.5 171.7 464.12 171.7Z" fill="#F24141"/>
<path d="M485.68 171.7H455.2C453.82 171.7 452.7 170.57 452.7 169.2C452.7 167.82 453.83 166.7 455.2 166.7H485.67C487.05 166.7 488.17 167.83 488.17 169.2C488.18 170.58 487.05 171.7 485.68 171.7Z" fill="#FC6363"/>
<path d="M481.59 171.13H470.58C469.36 171.13 468.36 170.13 468.36 168.91C468.36 167.69 469.36 166.69 470.58 166.69H481.59C482.81 166.69 483.81 167.69 483.81 168.91C483.8 170.14 482.8 171.13 481.59 171.13Z" fill="#FF9797"/>
<path d="M73.1101 193.76H118.36C122.59 193.76 125.91 190.14 125.54 185.92L121.58 140.61C121.25 136.89 118.14 134.03 114.4 134.03H69.1501C64.9201 134.03 61.6001 137.65 61.9701 141.86L65.9301 187.17C66.2501 190.9 69.3701 193.76 73.1101 193.76Z" fill="#8FE5DF"/>
<path d="M113.25 193.76H77.86L77.02 184.14C76.29 175.82 82.5 169.02 90.82 169.02H95.97C104.29 169.02 111.68 175.82 112.41 184.14L113.25 193.76Z" fill="#EFEDF9"/>
<path d="M103.81 139.96H76.66C75.69 139.96 74.83 139.17 74.74 138.2C74.66 137.23 75.38 136.44 76.35 136.44H103.5C104.47 136.44 105.33 137.23 105.42 138.2C105.5 139.17 104.78 139.96 103.81 139.96Z" fill="#414C84"/>
<path d="M104.12 139.96H86.1299C85.3299 139.96 84.6199 139.31 84.5499 138.51L84.4999 137.89C84.4299 137.09 85.0299 136.44 85.8299 136.44H103.82C104.62 136.44 105.33 137.09 105.4 137.89L105.45 138.51C105.51 139.31 104.91 139.96 104.12 139.96Z" fill="#596596"/>
<path d="M105.55 158.32C105.7 160.04 104.43 161.43 102.71 161.43C100.99 161.43 99.4799 160.04 99.3299 158.32C99.1799 156.6 100.45 155.21 102.17 155.21C103.89 155.21 105.4 156.6 105.55 158.32Z" fill="#F4BC71"/>
<path d="M93.1499 170.95H92.7399C87.1699 170.95 82.2199 166.4 81.7299 160.83L81.2199 154.95C80.7299 149.38 84.8899 144.83 90.4599 144.83H90.8699C96.4399 144.83 101.39 149.38 101.88 154.95L102.39 160.83C102.87 166.4 98.7199 170.95 93.1499 170.95Z" fill="#F4BC71"/>
<path d="M94.1698 164.34H93.8798C89.9898 164.34 86.5298 161.16 86.1898 157.27L85.8298 153.16C85.4898 149.27 88.3898 146.09 92.2898 146.09H92.5798C96.4698 146.09 99.9298 149.27 100.27 153.16L100.63 157.27C100.96 161.15 98.0598 164.34 94.1698 164.34Z" fill="#F9C68A"/>
<path d="M96.7701 150.82H85.5901C82.9801 150.82 80.6601 148.69 80.4401 146.08C80.2101 143.47 82.1601 141.34 84.7601 141.34H95.9401C98.5501 141.34 100.87 143.47 101.09 146.08C101.32 148.69 99.3801 150.82 96.7701 150.82Z" fill="#AD794E"/>
<path d="M98.91 144.84H80.6C80.45 144.84 80.31 144.72 80.3 144.56L79.74 138.2H98.32C100.14 138.2 101.77 139.69 101.93 141.52C102.1 143.34 100.74 144.84 98.91 144.84Z" fill="#414C84"/>
<path d="M82.92 157.89C82.12 157.89 81.41 157.24 81.34 156.44L80.56 147.53C80.49 146.73 81.09 146.08 81.88 146.08C82.68 146.08 83.39 146.73 83.46 147.53L84.24 156.44C84.32 157.24 83.72 157.89 82.92 157.89Z" fill="#AD794E"/>
<path d="M92.7699 139.96H87.0999C86.8399 139.96 86.5999 140 86.3799 140.07C87.3899 140.38 88.1899 141.31 88.2899 142.39C88.3799 143.47 87.7499 144.4 86.7899 144.71C87.0299 144.78 87.2799 144.82 87.5299 144.82H93.1999C94.5399 144.82 95.5399 143.72 95.4199 142.38C95.2999 141.06 94.1099 139.96 92.7699 139.96Z" fill="#596596"/>
<path d="M105.26 144.68C105.57 148.26 102.93 151.16 99.3499 151.16C95.7699 151.16 92.6199 148.26 92.3099 144.68C91.9999 141.1 94.6399 138.2 98.2199 138.2C101.79 138.2 104.94 141.1 105.26 144.68Z" fill="#AD794E"/>
<path d="M101.98 141.93C102.17 144.11 100.56 145.87 98.39 145.87C96.21 145.87 94.3 144.11 94.11 141.93C93.92 139.75 95.53 137.99 97.7 137.99C99.87 138 101.78 139.76 101.98 141.93Z" fill="#B78058"/>
<path d="M84.41 158.32C84.56 160.04 83.29 161.43 81.57 161.43C79.85 161.43 78.34 160.04 78.19 158.32C78.04 156.6 79.31 155.21 81.03 155.21C82.75 155.21 84.26 156.6 84.41 158.32Z" fill="#F4BC71"/>
<path d="M161.43 193.76H141.38C138.28 193.76 135.55 191.25 135.28 188.15L133.53 168.1C133.26 165 135.55 162.49 138.65 162.49H158.7C161.8 162.49 164.53 165 164.8 168.1L166.55 188.15C166.82 191.24 164.53 193.76 161.43 193.76Z" fill="#FC6363"/>
<path d="M198.48 193.76H178.43C175.33 193.76 172.6 191.25 172.33 188.15L170.58 168.1C170.31 165 172.6 162.49 175.7 162.49H195.75C198.85 162.49 201.58 165 201.85 168.1L203.6 188.15C203.88 191.24 201.58 193.76 198.48 193.76Z" fill="#FCCF4F"/>
<path d="M235.35 193.76H215.3C212.2 193.76 209.47 191.25 209.2 188.15L207.45 168.1C207.18 165 209.47 162.49 212.57 162.49H232.62C235.72 162.49 238.45 165 238.72 168.1L240.47 188.15C240.74 191.24 238.45 193.76 235.35 193.76Z" fill="#67E58E"/>
<path d="M231.4 147.01H139.75C136.34 147.01 133.33 144.25 133.03 140.83C132.73 137.42 135.25 134.65 138.67 134.65H230.32C233.73 134.65 236.74 137.42 237.04 140.83C237.34 144.24 234.81 147.01 231.4 147.01Z" fill="#8FE5DF"/>
<path d="M235.43 157.74H137.61C135.9 157.74 134.4 156.36 134.25 154.65C134.1 152.94 135.36 151.56 137.07 151.56H234.89C236.6 151.56 238.1 152.94 238.25 154.65C238.4 156.36 237.14 157.74 235.43 157.74Z" fill="#8FE5DF"/>
<path d="M100 234.79H74.18C72.45 234.79 71.01 233.47 70.86 231.75L68.6 205.9C68.43 203.95 69.97 202.28 71.92 202.28H97.74C99.47 202.28 100.91 203.6 101.06 205.32L103.32 231.17C103.49 233.11 101.95 234.79 100 234.79Z" fill="#8FE5DF"/>
<path d="M229.26 208.94H113.09C111.36 208.94 109.92 207.62 109.77 205.9C109.6 203.95 111.14 202.28 113.09 202.28H229.26C230.99 202.28 232.43 203.6 232.58 205.32C232.75 207.27 231.22 208.94 229.26 208.94Z" fill="#8FE5DF"/>
<path d="M229.92 218.61H113.75C112.02 218.61 110.58 217.29 110.43 215.57C110.26 213.62 111.79 211.95 113.75 211.95H229.92C231.65 211.95 233.09 213.27 233.24 214.99C233.41 216.93 231.88 218.61 229.92 218.61Z" fill="#8FE5DF"/>
<path d="M233.01 251.78H116.84C115.11 251.78 113.67 250.46 113.52 248.74C113.35 246.79 114.89 245.12 116.84 245.12H233.01C234.74 245.12 236.18 246.44 236.33 248.16C236.5 250.1 234.96 251.78 233.01 251.78Z" fill="#8FE5DF"/>
<path d="M185.87 228.28H114.6C112.87 228.28 111.43 226.96 111.28 225.24C111.11 223.29 112.65 221.62 114.6 221.62H185.87C187.6 221.62 189.04 222.94 189.19 224.66C189.36 226.6 187.83 228.28 185.87 228.28Z" fill="#8FE5DF"/>
<path d="M236.67 256.67C236.13 255.54 234.98 254.78 233.67 254.78H117.5C116.17 254.78 115.05 255.56 114.51 256.67H236.67Z" fill="#8FE5DF"/>
<path d="M105.55 256.67L104.76 247.66C104.61 245.94 103.17 244.62 101.44 244.62H75.62C73.66 244.62 72.13 246.3 72.3 248.24L73.04 256.67H105.55Z" fill="#8FE5DF"/>
</svg>
