<?xml version="1.0" encoding="iso-8859-1"?>
<!-- Uploaded to: SVG Repo, www.svgrepo.com, Generator: SVG Repo Mixer Tools -->
<svg fill="#000000" height="800px" width="800px" version="1.1" id="Layer_1" xmlns="http://www.w3.org/2000/svg" xmlns:xlink="http://www.w3.org/1999/xlink" 
	 viewBox="0 0 512 512" xml:space="preserve">
<g>
	<g>
		<path d="M497.972,113.851l-92.47-92.47c-9.06-9.061-21.107-14.051-33.921-14.051c-12.813,0-24.861,4.99-33.922,14.051
			l-276.1,276.099l21.069,21.069l-25.993,25.993c-6.052,6.051-9.385,14.099-9.385,22.658c0,8.558,3.333,16.605,9.385,22.657
			l1.198,1.198L0,448.885l85.151,55.786l43.149-43.15l1.197,1.198c6.052,6.052,14.098,9.385,22.657,9.385
			c8.559,0,16.605-3.333,22.657-9.385l25.993-25.992l21.068,21.068l276.101-276.099
			C516.676,162.989,516.676,132.554,497.972,113.851z M81.139,465.757l-33.283-21.804l31.439-31.439l27.545,27.545L81.139,465.757z
			 M153.351,441.255c-0.658,0.658-1.734,0.658-2.392,0l-1.197-1.198l-70.468-70.467l-1.198-1.198
			c-0.329-0.329-0.495-0.731-0.495-1.196c0-0.465,0.167-0.867,0.495-1.197l25.992-25.992l75.253,75.254L153.351,441.255z
			 M221.873,414.87L104.482,297.479l36.67-36.67l117.391,117.391L221.873,414.87z M476.511,160.233L280.005,356.738L162.614,239.347
			L359.12,42.843c3.329-3.329,7.754-5.162,12.46-5.162s9.131,1.833,12.459,5.161l92.47,92.47
			C483.381,142.183,483.381,153.362,476.511,160.233z"/>
	</g>
</g>
</svg>