<?xml version="1.0" encoding="iso-8859-1"?>
<!-- Uploaded to: SVG Repo, www.svgrepo.com, Generator: SVG Repo Mixer Tools -->
<svg fill="#000000" height="800px" width="800px" version="1.1" id="Layer_1" xmlns="http://www.w3.org/2000/svg" xmlns:xlink="http://www.w3.org/1999/xlink" 
	 viewBox="0 0 510.302 510.302" xml:space="preserve">
<g>
	<g>
		<g>
			<path d="M504.051,96.768L413.555,6.25c-8.33-8.331-21.836-8.334-30.168-0.005l-30.181,30.167
				c-8.331-8.329-21.837-8.329-30.168,0.002L66.59,292.862c-8.331,8.331-8.331,21.839,0,30.17c-2.667-2.667-2.774-3.055-2.764-1.909
				c0.04,4.436-0.984,10.534-3.21,17.502c-5.975,18.708-18.989,39.552-39.275,59.837c-8.331,8.331-8.331,21.839,0,30.17
				l15.081,15.081L6.253,473.884c-8.331,8.331-8.331,21.839,0,30.17c8.331,8.331,21.839,8.331,30.17,0l30.171-30.171l15.079,15.079
				c8.331,8.331,21.839,8.331,30.17,0c20.286-20.286,41.129-33.3,59.837-39.275c6.968-2.225,13.066-3.249,17.502-3.21
				c1.145,0.01,0.758-0.097-1.909-2.764c8.331,8.331,21.839,8.331,30.17,0L473.89,187.266c8.331-8.331,8.331-21.839,0-30.17
				l-0.001-0.001l30.16-30.16C512.38,118.605,512.38,105.099,504.051,96.768z M338.119,81.672l90.512,90.512
				c0,0,0.001,0.001,0.001,0.001L202.357,398.459l-90.513-90.513L338.119,81.672z M97.445,444.396l-31.537-31.537
				c15.492-18.618,26.993-38.394,33.768-56.74l54.509,54.509C135.839,417.403,116.064,428.903,97.445,444.396z M383.376,66.582
				l15.087-15.08l60.333,60.347l-15.077,15.077L383.376,66.582z"/>
			<path d="M228.423,312.053l128-128c8.331-8.331,8.331-21.839,0-30.17c-8.331-8.331-21.839-8.331-30.17,0l-128,128
				c-8.331,8.331-8.331,21.839,0,30.17C206.584,320.385,220.091,320.385,228.423,312.053z"/>
		</g>
	</g>
</g>
</svg>